<svg width="73" height="81" viewBox="0 0 73 81" fill="none" xmlns="http://www.w3.org/2000/svg">
<path d="M12.3992 69.2918L13.6266 70.1307C13.2431 70.7409 13.2431 71.351 14.0102 71.8849C14.7007 72.3425 15.2377 72.2663 15.6213 71.7324C16.0049 71.1222 15.9281 70.6646 15.2377 70.207L14.7774 69.9019L15.3911 68.9867L15.8514 69.2918C16.4652 69.7494 17.0022 69.6731 17.309 69.1392C17.6159 68.6816 17.5392 68.224 17.0022 67.8426C16.4652 67.4613 15.8514 67.5376 15.3911 68.0714L14.1637 67.2325C14.5472 66.6986 15.161 66.3935 15.7747 66.3172C16.3884 66.241 17.0789 66.3935 17.7693 66.9274C18.4598 67.385 18.8434 67.9189 18.9968 68.4528C19.1502 68.9867 19.0735 69.5206 18.7666 69.9782C18.3063 70.6646 17.6159 70.8172 16.8487 70.5883C17.4625 71.2748 17.5392 72.0375 17.0022 72.8002C16.235 73.9442 14.8541 74.0205 13.3965 73.029C11.8622 71.8849 11.632 70.5121 12.3992 69.2918Z" fill="#B89C84"/>
<path d="M25.6713 70.8936C26.8988 71.2749 27.666 71.9613 28.1263 72.724C28.5099 73.4867 28.5099 74.4782 28.203 75.546V75.6223C27.8194 76.69 27.2824 77.4527 26.4385 77.8341C25.5946 78.2154 24.5973 78.2917 23.3699 77.8341L21.0684 77.0714L23.4466 70.1309L25.6713 70.8936ZM26.4385 75.0884V75.0121C26.8988 73.563 26.5919 72.5715 25.0576 72.1139L24.4439 71.8851L22.9096 76.385L23.5233 76.6138C25.0576 77.0714 25.9782 76.5375 26.4385 75.0884Z" fill="#B89C84"/>
<path d="M37.5616 74.2494L37.4082 72.9528L43.0852 72.4189L43.2387 73.7155L41.244 73.9443L41.8578 79.9696L40.17 80.1222L39.5563 74.0969L37.5616 74.2494Z" fill="#B89C84"/>
<path d="M49.2218 78.3679L48.7615 77.1476C48.8382 77.1476 48.9916 77.1476 49.2985 76.9951C49.6821 76.8425 49.9889 76.4612 50.0657 75.9273L45.7695 71.8087L47.3806 71.1986L50.0657 73.9443L50.2191 70.1308L51.7534 69.5969L51.4466 75.6222C51.3698 76.8425 51.1397 77.7578 49.9122 78.2154C49.5286 78.3679 49.2985 78.3679 49.2218 78.3679Z" fill="#B89C84"/>
<path d="M56.6651 66.4699C58.1227 65.4021 59.4269 65.4784 60.3475 66.6987C60.8078 67.3088 60.9612 67.919 60.7311 68.5291C60.5776 69.1393 60.1173 69.6732 59.4269 70.1308L58.6597 70.6647L60.2708 72.8002L58.8899 73.7917L54.5938 67.8427L56.6651 66.4699ZM59.0433 67.6902C58.583 67.0037 58.046 67.0037 57.3555 67.5376L56.6651 67.9952L57.9693 69.8257L58.6597 69.3681C59.4269 68.8342 59.5036 68.3003 59.0433 67.6902Z" fill="#B89C84"/>
<path d="M6.79959 27.6485C5.95571 27.9536 4.9584 27.8011 3.96109 27.3434H3.88437C2.81034 26.8096 2.11989 26.0469 1.81303 25.2079C1.50616 24.3689 1.58288 23.3774 2.04317 22.3859C2.42676 21.6232 2.96377 21.0131 3.65422 20.708C4.26795 20.4029 5.03512 20.3266 5.95571 20.6317L5.18855 22.1571C4.34467 21.852 3.73094 22.0808 3.27064 22.9198C2.73362 23.9876 3.27064 25.0554 4.65153 25.6655H4.72825C6.10915 26.3519 7.18318 26.1231 7.72019 24.9791C8.10377 24.1401 7.95034 23.3774 7.18318 22.8435L7.87362 21.4707C8.64079 21.9283 9.10109 22.6147 9.25452 23.3011C9.40795 23.9876 9.25452 24.8265 8.87094 25.6655C8.33392 26.7333 7.64347 27.4197 6.79959 27.6485Z" fill="#B89C84"/>
<path d="M8.79464 12.9288L13.2442 14.9881L11.2496 10.5645L12.7839 9.03906L17.9239 14.3017L16.6964 15.4457L13.0908 11.7085L15.2388 16.8186L14.8552 17.1999L9.79195 14.9118L13.3976 18.649L12.3236 19.7168L7.18359 14.4542L8.79464 12.9288Z" fill="#B89C84"/>
<path d="M21.606 11.0217C20.7621 10.7166 19.9949 9.95394 19.6113 8.96243V8.88616C19.151 7.89466 19.151 6.90315 19.5346 5.98792C19.9182 5.14895 20.6086 4.38625 21.606 3.92864C22.6033 3.47102 23.6773 3.47102 24.5212 3.7761C25.3651 4.08118 26.1322 4.7676 26.5925 5.83538V5.91165C27.0528 6.90315 27.0528 7.97093 26.746 8.80989C26.4391 9.64886 25.6719 10.4116 24.5979 10.8692C23.5239 11.4031 22.4498 11.4031 21.606 11.0217ZM25.1349 8.50481C25.2883 7.97093 25.2116 7.36077 24.9048 6.67434V6.59807C24.5979 5.91165 24.2143 5.45403 23.754 5.22522C23.217 4.99641 22.68 4.92014 22.0663 5.22522C21.4525 5.45403 21.1457 5.91165 20.9155 6.44553C20.7621 6.97942 20.8388 7.58958 21.1457 8.276V8.35227C21.4525 9.0387 21.9128 9.49632 22.3731 9.72513C22.9101 9.95394 23.4471 9.95394 23.9842 9.72513C24.5979 9.49632 24.9815 9.0387 25.1349 8.50481Z" fill="#B89C84"/>
<path d="M30.2745 2.7084L30.1211 1.41182L35.7214 0.87793L35.8748 2.17451L33.8802 2.40332L34.4939 8.42862L32.8062 8.58116L32.1924 2.55586L30.2745 2.7084Z" fill="#B89C84"/>
<path d="M43.931 1.64058C45.6954 1.94566 46.5393 2.93716 46.3092 4.46255V4.53882C46.1557 5.30152 45.7722 5.83541 45.2352 6.14048C44.6981 6.44556 44.0077 6.52183 43.1638 6.36929L42.2432 6.21675L41.7829 8.65738L40.1719 8.3523L41.4761 1.10669L43.931 1.64058ZM44.6981 4.15747C44.8516 3.31851 44.468 2.93716 43.7008 2.86089L42.8569 2.70835L42.4734 4.92017L43.3172 5.07271C44.0844 5.22525 44.6214 4.92017 44.6981 4.15747Z" fill="#B89C84"/>
<path d="M56.5109 6.14043L55.8972 7.28448L53.0587 5.91162L52.2915 7.43702L54.5163 8.58106L54.056 9.64883L51.7545 8.50479L50.9874 10.1827L53.9793 11.6318L53.3656 12.7759L48.916 10.5641L52.2148 4.00488L56.5109 6.14043Z" fill="#B89C84"/>
<path d="M60.1176 10.1067L60.9615 9.11523L65.1809 12.9287L64.337 13.9202L62.8794 12.5474L58.8134 17.0473L57.5859 15.9032L61.6519 11.4033L60.1176 10.1067Z" fill="#B89C84"/>
<path d="M69.6313 18.725L67.3298 20.0979L67.7901 20.8606C68.634 22.3097 68.634 23.6063 67.2531 24.369C65.9489 25.2079 64.7214 24.7503 63.7241 23.2249L62.4199 21.0894L68.7107 17.2759L69.6313 18.725ZM66.4092 23.1486C67.0996 22.7673 67.1763 22.2334 66.716 21.4707L66.3325 20.7843L64.4145 21.9283L64.8748 22.691C65.2584 23.3012 65.7954 23.53 66.4092 23.1486Z" fill="#B89C84"/>
<path d="M9.79123 62.1226C4.65123 56.021 1.50586 48.1653 1.50586 39.5468C1.50586 37.7163 1.65929 35.9621 1.88944 34.2842" stroke="#B89C84" stroke-width="1.057" stroke-miterlimit="10" stroke-linecap="round" stroke-linejoin="bevel"/>
<path d="M71.2412 31.0042C71.9316 33.7499 72.3152 36.5718 72.3152 39.5463C72.3152 48.1648 69.1698 56.0969 63.9531 62.1984" stroke="#B89C84" stroke-width="1.057" stroke-miterlimit="10" stroke-linecap="round" stroke-linejoin="bevel"/>
<path d="M29.4439 29.966L38.3272 26.104L51.7522 32.4213L38.3272 38.4726L24.5234 32.2883V47.7823L38.3272 54.3655V41.7709" stroke="#B89C84" stroke-width="2" stroke-miterlimit="10" stroke-linecap="round" stroke-linejoin="round"/>
<path d="M38.3281 54.3656L51.7531 47.9819V32.4214" stroke="#B89C84" stroke-width="2" stroke-miterlimit="10" stroke-linecap="round" stroke-linejoin="round"/>
</svg>
