<svg width="105" height="74" viewBox="0 0 105 74" fill="none" xmlns="http://www.w3.org/2000/svg">
<path d="M99.7734 46.7549C99.7734 53.8799 100.055 60.958 100.617 67.9893L65.6016 73.6143C64.5703 63.7705 64.0547 56.3643 64.0547 51.3955C64.0547 46.333 64.1953 41.458 64.4766 36.7705C64.8516 32.083 65.3203 27.8643 65.8828 24.1143C67.2891 16.0518 68.9766 11.3643 70.9453 10.0518C75.6328 7.14551 86.6484 3.86426 103.992 0.208008L104.836 1.05176C101.461 6.58301 99.7734 21.8174 99.7734 46.7549ZM36.4922 46.7549C36.4922 53.8799 36.7734 60.958 37.3359 67.9893L2.32031 73.6143C1.28906 63.7705 0.773438 56.3643 0.773438 51.3955C0.773438 46.333 0.914062 41.458 1.19531 36.7705C1.57031 32.083 2.03906 27.8643 2.60156 24.1143C4.00781 16.0518 5.69531 11.3643 7.66406 10.0518C12.2578 7.14551 23.2734 3.86426 40.7109 0.208008L41.5547 1.05176C38.1797 6.58301 36.4922 21.8174 36.4922 46.7549Z" fill="#292726"/>
</svg>
