<svg width="76" height="18" viewBox="0 0 76 18" fill="none" xmlns="http://www.w3.org/2000/svg">
<path d="M13.6074 0.128662H0V17.7749H3.56466V13.2355H10.5912V9.91082H3.56466V3.42135H10.5226L10.5912 3.38938L13.6074 0.544244L14.0873 0.128662H13.6074Z" fill="white" fill-opacity="0.7"/>
<path d="M15.0343 2.36322L13.9375 3.41816V17.7717H17.5022V0.0935059L15.0343 2.36322Z" fill="white" fill-opacity="0.7"/>
<path d="M48.6602 3.35568V17.7412H52.2248V0.0629883L48.6602 3.35568Z" fill="white" fill-opacity="0.7"/>
<path d="M40.9631 10.5201V6.71596H43.0539L46.6186 3.39131H40.9631V0.0666504H37.3984V10.5201C37.3984 12.7898 38.0497 14.5481 39.3179 15.7309C41.2373 17.5211 44.1507 17.7449 46.2073 17.7449V14.4202C44.0136 14.4202 42.5741 14.0686 41.8543 13.3972C41.2373 12.8218 40.9631 11.8947 40.9631 10.5201Z" fill="white" fill-opacity="0.7"/>
<path d="M65.9656 11.2861C67.7822 9.59183 68.0564 8.15328 68.0564 6.65079C68.0564 3.00645 64.8688 0.0334473 60.9614 0.0334473C57.0539 0.0334473 53.8663 3.00645 53.8663 6.65079C53.8663 8.88854 55.0317 10.9025 56.9854 12.1493L59.5903 9.7197C58.1165 9.20821 57.3967 7.89753 57.3967 6.65079C57.3967 4.82862 59.0076 3.32613 60.9614 3.32613C62.9151 3.32613 64.4575 4.82862 64.526 6.65079C64.5603 7.70573 64.149 8.50492 60.173 12.0534L53.832 17.8395H67.9879V14.5468H62.3667L65.9656 11.2861Z" fill="white" fill-opacity="0.7"/>
<path d="M73.0853 5.5624C74.6943 5.5624 75.9987 4.31722 75.9987 2.7812C75.9987 1.24519 74.6943 0 73.0853 0C71.4763 0 70.1719 1.24519 70.1719 2.7812C70.1719 4.31722 71.4763 5.5624 73.0853 5.5624Z" fill="white" fill-opacity="0.7"/>
<path d="M35.2469 10.7113C35.2469 6.68333 31.7508 3.42261 27.432 3.42261C23.1133 3.42261 19.6172 6.68333 19.6172 10.7113C19.6172 14.7392 23.1133 17.9999 27.432 17.9999C29.0087 17.9999 30.4826 17.5524 31.6822 16.8171V17.7762H35.2469V10.8711C35.2469 10.8072 35.2469 10.7752 35.2469 10.7113ZM27.432 14.6753C25.067 14.6753 23.1819 12.8851 23.1819 10.7113C23.1819 8.53746 25.067 6.71529 27.432 6.71529C29.797 6.71529 31.6822 8.50549 31.6822 10.6793C31.6822 12.8531 29.7628 14.6753 27.432 14.6753Z" fill="white" fill-opacity="0.7"/>
</svg>
