<svg width="98" height="23" viewBox="0 0 98 23" fill="none" xmlns="http://www.w3.org/2000/svg">
<g opacity="0.4">
<path d="M17.9425 0.163086H0.554688V22.6265H5.10967V16.8479H14.0882V12.6157H5.10967V4.35464H14.0006L14.0882 4.31394L17.9425 0.692117L18.5556 0.163086H17.9425Z" fill="#B89C84"/>
<path d="M19.7648 3.00846L18.3633 4.35139V22.6233H22.9183V0.119141L19.7648 3.00846Z" fill="#B89C84"/>
<path d="M62.7305 4.27163V22.5842H67.2855V0.0800781L62.7305 4.27163Z" fill="#B89C84"/>
<path d="M52.8968 13.3921V8.54945H55.5684L60.1234 4.31721H52.8968V0.0849609H48.3418V13.3921C48.3418 16.2814 49.174 18.5196 50.7945 20.0253C53.2472 22.3043 56.97 22.5891 59.5979 22.5891V18.3569C56.7948 18.3569 54.9553 17.9092 54.0355 17.0546C53.2472 16.3221 52.8968 15.142 52.8968 13.3921Z" fill="#B89C84"/>
<path d="M84.8443 14.367C87.1656 12.2102 87.516 10.3789 87.516 8.46628C87.516 3.82708 83.4428 0.0424805 78.4498 0.0424805C73.4568 0.0424805 69.3836 3.82708 69.3836 8.46628C69.3836 11.3149 70.8728 13.8787 73.3692 15.4658L76.6979 12.373C74.8146 11.7218 73.8948 10.0534 73.8948 8.46628C73.8948 6.14668 75.9533 4.23403 78.4498 4.23403C80.9463 4.23403 82.9172 6.14668 83.0048 8.46628C83.0486 9.8092 82.523 10.8266 77.4425 15.3437L69.3398 22.7094H87.4284V18.5179H80.2455L84.8443 14.367Z" fill="#B89C84"/>
<path d="M93.9455 7.08087C96.0015 7.08087 97.6683 5.49577 97.6683 3.54044C97.6683 1.58511 96.0015 0 93.9455 0C91.8894 0 90.2227 1.58511 90.2227 3.54044C90.2227 5.49577 91.8894 7.08087 93.9455 7.08087Z" fill="#B89C84"/>
<path d="M45.5929 13.6353C45.5929 8.50779 41.1255 4.35693 35.607 4.35693C30.0885 4.35693 25.6211 8.50779 25.6211 13.6353C25.6211 18.7628 30.0885 22.9137 35.607 22.9137C37.6217 22.9137 39.505 22.344 41.038 21.408V22.6288H45.5929V13.8388C45.5929 13.7574 45.5929 13.7167 45.5929 13.6353ZM35.607 18.6815C32.585 18.6815 30.1761 16.4026 30.1761 13.6353C30.1761 10.8681 32.585 8.54849 35.607 8.54849C38.6291 8.54849 41.038 10.8274 41.038 13.5946C41.038 16.3619 38.5853 18.6815 35.607 18.6815Z" fill="#B89C84"/>
</g>
</svg>
