<svg width="389" height="388" viewBox="0 0 389 388" fill="none" xmlns="http://www.w3.org/2000/svg">
<g opacity="0.7">
<g clip-path="url(#clip0)">
<path d="M68.9361 128.034C70.5783 127.387 72.5399 127.775 74.4919 128.59L74.6612 128.68C76.5237 129.665 77.9485 131.068 78.5074 132.879C79.1557 134.521 78.9382 136.571 78.2127 138.353C77.4075 139.876 76.353 141.05 75.1389 141.707C73.9247 142.365 72.3816 142.415 70.7683 141.778L72.1201 138.812C73.8229 139.279 75.1168 138.881 75.7528 137.269C76.8266 135.238 75.7597 133.158 73.0506 131.726L72.8813 131.636C70.0828 130.373 68.1019 130.841 66.9387 133.041C66.1334 134.564 66.3536 136.196 67.9573 137.26L67.0336 140.236C65.5993 139.261 64.5131 138.037 64.3727 136.664C63.8937 135.111 64.1016 133.489 64.9069 131.966C65.9806 129.936 67.3833 128.512 68.9361 128.034Z" fill="#E0DBCF"/>
<path d="M70.7749 149.142L73.155 149.968L69.9173 160.598L67.5372 159.772L68.6494 156.03L57.3368 152.429L58.35 149.284L69.6626 152.885L70.7749 149.142Z" fill="#E0DBCF"/>
<path d="M53.9515 165.796L56.5106 166.283C56.4211 166.453 56.2421 166.791 56.2325 167.219C56.0439 167.985 56.4527 168.851 57.3792 169.558L68.4179 166.301L67.9127 169.715L60.6761 171.517L67.011 175.517L66.426 178.672L56.4651 172.106C54.3535 170.772 53.0981 169.459 53.584 166.901C53.6831 166.304 53.9515 165.796 53.9515 165.796Z" fill="#E0DBCF"/>
<path d="M48.8657 182.378L54.0031 182.497L53.9838 183.352C54.3032 184.387 55.6673 184.676 57.7184 184.894C59.9388 185.202 62.6768 185.351 65.7631 185.251L65.5318 195.522L53.7139 195.335L53.6754 197.047L48.538 196.929L48.516 194.102L51.1742 193.992L51.3766 185.005L48.8079 184.946L48.8657 182.378ZM53.9865 187.035L53.7814 192.339L63.0306 192.467L63.1269 188.187C61.4145 188.148 59.3634 187.929 57.4816 187.8C56.1973 187.771 55.0024 187.572 53.9865 187.035Z" fill="#E0DBCF"/>
<path d="M66.1852 204.528L66.6257 207.793L56.5712 209.188L67.347 213.804L67.7875 217.068L53.5221 219.051L53.0816 215.787L63.1361 214.392L52.191 209.686L51.7505 206.422L66.1852 204.528Z" fill="#E0DBCF"/>
<path d="M55.4607 228.088L62.3518 230.216C62.221 228.415 63.0263 226.892 65.0967 226.254C67.9434 225.378 70.0454 227.139 70.914 230.413L72.431 235.329L58.5455 239.462L57.5875 236.358L62.7634 234.764L62.3642 233.47L56.1503 231.7L55.4607 228.088ZM66.1442 229.19C64.6809 229.499 64.3134 230.604 64.7924 232.156L65.2715 233.709L69.4122 232.434L69.0226 230.712C68.3646 229.498 67.6075 228.881 66.1442 229.19Z" fill="#E0DBCF"/>
<path d="M82.4028 256.626C84.0478 259.661 83.8207 262.139 81.0441 263.702C79.7405 264.528 78.4562 264.499 77.3508 264.131C76.2454 263.763 75.3286 262.628 74.5013 261.325L73.5941 259.763L68.9964 262.311L67.4313 259.535L80.0104 252.546L82.4028 256.626ZM79.479 260.926C80.9519 260.189 80.8913 259.074 80.3228 257.691L79.585 256.218L75.6838 258.269L76.4216 259.742C77.1595 261.215 78.2648 261.583 79.479 260.926Z" fill="#E0DBCF"/>
<path d="M79.9885 276.351C80.2858 274.56 81.1806 272.868 82.9219 271.624L83.0114 271.454C84.7528 270.21 86.5643 269.652 88.4461 269.781C90.2384 270.079 91.9316 270.975 93.4362 272.636C94.6819 274.378 95.4101 276.279 95.1128 278.07C94.8154 279.862 93.9207 281.554 92.2592 283.057L92.1697 283.226C90.4283 284.47 88.5273 285.197 86.735 284.899C84.8532 284.77 83.2495 283.706 81.8344 281.875C80.4193 280.044 79.6911 278.143 79.9885 276.351ZM86.6331 281.814C87.6587 281.923 88.7833 281.435 90.0869 280.609L90.1764 280.44C91.3107 279.524 92.0169 278.598 92.2151 277.404C92.3239 276.379 92.2633 275.264 91.5158 274.219C90.7684 273.174 89.7525 272.637 88.6374 272.697C87.6119 272.588 86.4872 273.076 85.1836 273.902L85.0942 274.071C83.9599 274.987 83.1642 276.082 83.0554 277.107C82.9467 278.132 83.0073 279.247 83.8442 280.123C84.5022 281.337 85.6076 281.705 86.6331 281.814Z" fill="#E0DBCF"/>
<path d="M106.22 286.975L102.762 295.973L111.171 291.542L114.28 294.268L104.7 305.009L102.349 302.9L109.113 295.434L99.4099 300.263L98.6528 299.646L102.309 289.454L95.5445 296.92L93.3627 294.9L102.942 284.159L106.22 286.975Z" fill="#E0DBCF"/>
<path d="M127.697 303.312L124.025 318.042L121.066 316.261L121.91 313.027L117.518 310.271L115.07 312.441L112.451 310.839L124.062 301.173L127.697 303.312ZM122.476 310.727L124.244 304.517L119.349 308.857L122.476 310.727Z" fill="#E0DBCF"/>
<path d="M140.815 310.465L138.38 315.89L143.638 318.237L146.074 312.813L149.041 314.166L143.347 327.393L140.379 326.04L142.814 320.616L137.555 318.268L135.12 323.693L132.152 322.34L137.847 309.112L140.815 310.465Z" fill="#E0DBCF"/>
<path d="M164.615 318.72L165.473 333.897L162.237 333.052L162.055 329.708L156.946 328.306L155.167 331.262L152.099 330.506L160.353 317.766L164.615 318.72ZM162.113 327.14L161.829 320.711L158.448 326.285L162.113 327.14Z" fill="#E0DBCF"/>
<path d="M184.375 339.129L184.49 333.993L185.346 334.013C186.382 333.694 186.669 332.331 186.887 330.281C187.194 328.061 187.341 325.324 187.239 322.239L197.514 322.476L197.334 334.289L199.046 334.329L198.93 339.464L196.103 339.484L195.991 336.827L187.001 336.62L186.943 339.188L184.375 339.129ZM188.861 333.923L194.257 333.961L194.38 324.716L190.268 324.707C190.229 326.418 190.012 328.469 189.884 330.35C189.765 331.803 189.567 332.997 188.861 333.923Z" fill="#E0DBCF"/>
<path d="M209.589 334.057C208.155 333.082 207.168 331.261 206.788 329.112L206.877 328.943C206.497 326.793 207.053 324.922 208.287 323.409C209.431 322.065 211.083 320.99 213.233 320.611C215.383 320.233 217.255 320.789 218.859 321.854C220.293 322.829 221.28 324.65 221.66 326.8L221.571 326.969C221.951 329.119 221.394 330.99 220.33 332.592C219.266 334.195 217.445 335.18 215.295 335.559C212.806 335.759 210.934 335.202 209.589 334.057ZM217.452 331.07C217.899 330.224 218.187 328.861 218.047 327.487L218.136 327.318C217.996 325.945 217.338 324.731 216.581 324.114C215.654 323.407 214.718 323.129 213.344 323.268C212.14 323.498 211.185 324.075 210.568 324.831C210.031 325.847 209.833 327.041 209.973 328.414L209.884 328.584C210.193 330.047 210.682 331.171 211.608 331.877C212.535 332.584 213.471 332.862 214.586 332.802C215.96 332.663 216.915 332.085 217.452 331.07Z" fill="#E0DBCF"/>
<path d="M230.96 316.995L232.796 322.946L235.877 315.481L239.242 314.445L235.803 322.587L243.732 328.079L240.109 329.194L233.445 324.588L235.361 330.798L232.255 331.754L228.024 318.04L230.96 316.995Z" fill="#E0DBCF"/>
<path d="M252.383 324.425L251.236 322.086C251.495 322.007 251.754 321.927 252.271 321.768C253.137 321.359 253.495 320.683 253.435 319.568L244.519 312.255L247.634 310.871L253.263 315.796L252.829 308.421L255.685 307.117L256.102 319.03C256.134 321.428 255.837 323.22 253.498 324.365C252.98 324.524 252.552 324.514 252.383 324.425Z" fill="#E0DBCF"/>
<path d="M264.63 301.671L268.198 306.806L268.979 298.774L271.934 296.873L270.965 305.671L280.236 308.625L277.102 310.865L269.364 308.289L273.012 313.682L270.315 315.504L262.362 303.503L264.63 301.671Z" fill="#E0DBCF"/>
<path d="M277.257 292.542L279.704 290.372L286.56 297.895L284.162 286.45L286.609 284.28L296.394 294.867L293.946 297.037L287.091 289.515L289.399 301.128L286.952 303.299L277.257 292.542Z" fill="#E0DBCF"/>
<path d="M294.179 275.292L298.812 278.824L302.343 274.195L297.71 270.663L299.739 268.055L311.106 276.881L309.077 279.488L304.365 275.698L300.834 280.326L305.546 284.117L303.517 286.725L292.15 277.9L294.179 275.292Z" fill="#E0DBCF"/>
<path d="M308.272 254.379L323.198 257.292L321.588 260.337L318.262 259.661L315.677 264.14L318.018 266.678L316.587 269.385L306.304 258.101L308.272 254.379ZM315.792 259.005L309.399 257.573L313.833 262.299L315.792 259.005Z" fill="#E0DBCF"/>
<path d="M108.323 102.309L104.985 98.3787L105.682 97.8809C106.129 97.0349 105.73 95.7412 104.484 93.9998C103.238 92.2584 101.574 90.0792 99.571 87.7209L107.431 81.0512L115.024 90.0465L116.248 88.9615L119.586 92.8919L117.318 94.7236L115.564 92.7136L108.669 98.3779L110.164 100.468L108.323 102.309ZM108.308 95.3724L112.328 91.8683L106.319 84.7935L103.175 87.4614C104.172 88.8545 105.507 90.4267 106.673 91.9093C107.5 93.2129 108.158 94.427 108.308 95.3724Z" fill="#E0DBCF"/>
<path d="M116.495 74.1527L119.362 72.4204L124.475 81.1873L124.656 69.3739L127.522 67.6416L134.869 79.9709L132.003 81.7032L126.889 72.9363L126.878 84.8393L124.012 86.5716L116.495 74.1527Z" fill="#E0DBCF"/>
<path d="M139.752 72.3765L142.689 71.3309C143.516 72.6345 144.532 73.1717 146.174 72.5245C147.558 71.9569 148.094 70.9417 147.695 69.6479C147.207 68.5234 146.36 68.0758 144.887 68.8125L143.504 69.3801L142.606 67.3898L143.99 66.8223C145.373 66.2547 145.562 65.4883 145.242 64.4534C144.754 63.3288 143.987 63.1399 142.693 63.5383C141.309 64.1058 141.031 65.0414 141.172 66.4148L138.405 67.5499C137.616 64.5346 138.869 62.1656 141.894 60.9508C144.831 59.9052 147.3 60.5616 148.108 62.7211C148.677 64.1043 148.3 65.637 147.165 66.5529C149.057 66.2539 150.501 66.801 151.149 68.443C152.206 70.9508 150.605 73.5686 147.41 74.6938C144.036 76.1575 141.318 75.1529 139.752 72.3765Z" fill="#E0DBCF"/>
<path d="M164.23 54.3576L172.075 67.3835L168.8 68.25L167.066 65.3841L161.899 66.5496L161.653 69.8837L158.637 70.6706L160.099 55.2044L164.23 54.3576ZM165.919 63.0456L162.619 57.4033L162.216 63.9022L165.919 63.0456Z" fill="#E0DBCF"/>
<path d="M178.504 51.9459L181.849 51.766L182.563 61.8874L187.772 51.2174L191.118 51.0376L192.164 65.4483L188.819 65.6281L188.104 55.5068L182.726 66.0872L179.381 66.267L178.504 51.9459ZM181.338 47.8151L183.399 47.6056C183.469 48.2923 183.888 48.7301 184.485 48.8295C185.172 48.7597 185.441 48.2521 185.37 47.5654L187.6 47.4455C187.562 49.1573 186.418 50.5011 184.616 50.6309C182.814 50.7606 181.638 49.7059 181.338 47.8151Z" fill="#E0DBCF"/>
<path d="M205.416 51.4531L204.943 57.2653L210.757 57.7419L211.141 52.0988L214.477 52.3469L213.124 66.788L209.708 66.2811L210.271 60.2997L204.457 59.8232L203.894 65.8046L200.558 65.5565L201.911 51.1154L205.416 51.4531Z" fill="#E0DBCF"/>
<path d="M236.214 57.1291L239.272 58.3128L235.973 67.8279L245.137 60.3319L248.195 61.5156L243.346 75.191L240.289 74.0073L243.677 64.323L234.513 71.819L231.455 70.6353L236.214 57.1291Z" fill="#E0DBCF"/>
<path d="M261.081 67.4647L258.138 72.6206L263.128 75.4759L266.071 70.32L268.949 71.8421L262.069 84.4431L259.191 82.921L262.134 77.7651L257.144 74.9098L254.201 80.0657L251.322 78.5436L258.033 65.853L261.081 67.4647Z" fill="#E0DBCF"/>
<path d="M275.466 79.1853L276.968 77.1647L285.724 83.9603L284.222 85.9809L281.104 83.6826L273.953 93.1089L271.343 91.0792L278.494 81.6528L275.466 79.1853Z" fill="#E0DBCF"/>
<path d="M299.563 97.124L297.723 98.9656L293.369 94.4979L291.001 96.9268L294.608 100.35L292.857 102.022L289.34 98.4299L286.713 100.938L291.237 105.496L289.396 107.337L282.78 100.591L293.117 90.4673L299.563 97.124Z" fill="#E0DBCF"/>
<path d="M309.15 108.906C311.312 111.782 311.085 114.26 308.817 116.091C307.682 117.007 306.478 117.236 305.114 116.948C303.75 116.66 302.913 115.784 301.916 114.391L300.75 112.908L296.481 116.064L294.568 113.537L306.24 104.985L309.15 108.906ZM306.903 113.564C308.296 112.568 308.146 111.623 307.319 110.319L306.322 108.926L302.75 111.584L303.747 112.977C304.574 114.281 305.769 114.48 306.903 113.564Z" fill="#E0DBCF"/>
<path d="M319.168 124.38L314.57 126.929L315.477 128.491C316.953 131.437 316.726 133.915 314.208 135.398C311.521 136.792 309.23 135.797 307.585 132.762L305.113 128.424L317.861 121.524L319.168 124.38ZM312.473 132.532C313.777 131.706 314.055 130.77 313.317 129.298L312.579 127.825L308.678 129.876L309.416 131.349C310.154 132.821 311.17 133.359 312.473 132.532Z" fill="#E0DBCF"/>
<path d="M329.758 148.601L327.339 149.488L325.155 143.786L321.96 144.911L323.656 149.488L321.496 150.295L319.8 145.717L316.515 147.012L318.69 153.142L316.272 154.028L312.88 144.873L326.357 139.874L329.758 148.601Z" fill="#E0DBCF"/>
<path d="M333.711 163.25C334.49 166.694 333.496 168.983 330.4 169.511C328.937 169.82 327.742 169.621 326.815 168.915C325.889 168.208 325.231 166.994 324.841 165.272L324.452 163.551L319.286 164.716L318.586 161.532L332.622 158.344L333.711 163.25ZM329.781 166.585C331.244 166.276 331.781 165.261 331.471 163.798L331.081 162.076L326.692 163.003L327.081 164.725C327.391 166.188 328.317 166.894 329.781 166.585Z" fill="#E0DBCF"/>
<path d="M323.897 180.579C325.041 179.236 327.032 178.339 329.003 178.299L329.172 178.389C331.402 178.269 333.185 178.995 334.53 180.139C335.875 181.283 336.862 183.105 336.983 185.334C337.104 187.563 336.548 189.434 335.404 190.778C334.26 192.122 332.439 193.108 330.209 193.227L330.039 193.138C327.809 193.258 325.937 192.701 324.682 191.387C323.426 190.074 322.35 188.422 322.229 186.193C322.197 183.794 322.753 181.923 323.897 180.579ZM326.283 188.77C327.04 189.386 328.404 189.675 329.778 189.535L329.947 189.625C331.321 189.485 332.446 188.997 333.232 188.33C334.018 187.663 334.385 186.558 334.414 185.275C334.443 183.991 333.865 183.035 332.939 182.329C332.012 181.623 330.817 181.424 329.443 181.563L329.274 181.474C327.731 181.524 326.606 182.012 325.9 182.938C325.114 183.605 324.747 184.709 324.807 185.824C324.948 187.197 325.526 188.153 326.283 188.77Z" fill="#E0DBCF"/>
<path d="M336.293 208.353C335.967 211.429 334.475 213.021 331.995 212.793C330.542 212.674 329.446 211.878 329.056 210.156C328.5 212.027 327.366 212.943 325.315 212.725C322.666 212.407 321.421 210.665 321.926 207.252L322.489 201.27L336.846 202.8L336.293 208.353ZM325.989 209.401C327.443 209.52 328.229 208.853 328.268 207.141L328.485 205.091L324.383 204.654L324.245 206.963C324.037 208.585 324.705 209.371 325.989 209.401ZM332.152 209.628C333.437 209.658 334.133 209.16 334.252 207.707L334.38 205.826L330.706 205.399L330.577 207.28C330.37 208.902 330.868 209.599 332.152 209.628Z" fill="#E0DBCF"/>
<path d="M200.102 256.939L168.325 153.959L170.879 120.449L193.17 146.311L224.946 249.291L200.102 256.939ZM172.188 153.62L202.607 252.201L220.205 246.784L189.786 148.202L174.092 129.943L172.188 153.62Z" fill="#E0DBCF"/>
<path d="M136.748 224.737L129.084 199.897L173.248 186.442L174.366 190.065L133.825 202.404L139.343 219.829L178.77 207.55L179.967 211.431L136.748 224.737Z" fill="#E0DBCF"/>
<path d="M213.959 200.825L212.842 197.203L253.731 184.615L248.472 167.11L206.975 180.026L205.857 176.404L250.977 162.372L258.642 187.211L213.959 200.825Z" fill="#E0DBCF"/>
<path d="M171.294 155.313L169.31 152.099L171.221 150.944L168.742 150.716C168.751 150.288 170.694 124.899 170.694 124.899L171.059 120.112L193.579 147.178L188.622 161.878L177.384 151.172L171.294 155.313ZM174.003 130.114C173.52 136.354 172.681 146.953 172.435 150.287L177.739 146.813L186.716 155.24L189.1 148.273L174.003 130.114Z" fill="#E0DBCF"/>
<path d="M218.488 235.162L204.58 239.443L205.709 243.103L219.617 238.821L218.488 235.162Z" fill="#E0DBCF"/>
<path d="M148.049 195.746L144.389 196.873L148.002 208.582L151.662 207.455L148.049 195.746Z" fill="#E0DBCF"/>
<path d="M165.586 191.311L161.926 192.438L165.539 204.147L169.199 203.02L165.586 191.311Z" fill="#E0DBCF"/>
<path d="M218.554 173.202L214.895 174.328L218.508 186.038L222.168 184.911L218.554 173.202Z" fill="#E0DBCF"/>
<path d="M235.566 168.361L231.906 169.488L235.519 181.197L239.179 180.07L235.566 168.361Z" fill="#E0DBCF"/>
<path d="M120.825 163.484C119.947 160.638 120.452 157.224 122.241 153.84L122.331 153.671C124.031 150.456 126.737 148.206 129.673 147.16C132.61 146.115 135.856 146.532 139.073 148.233C141.612 149.576 143.625 151.507 144.602 153.756C145.58 156.005 145.781 158.493 144.518 161.29L139.439 158.603C140.532 155.717 139.724 153.558 137.015 152.125C133.628 150.334 129.996 151.878 127.669 156.277L127.58 156.446C125.164 161.015 125.853 164.627 129.409 166.508C132.118 167.94 134.696 167.571 136.726 164.964L141.636 167.56C139.865 170.088 137.776 171.582 135.367 172.04C132.958 172.498 130.229 171.922 127.52 170.489C123.786 168.947 121.614 166.499 120.825 163.484Z" fill="#E0DBCF"/>
<path d="M262.954 216.341L258.522 241.929L253.443 239.243L254.514 233.53L246.556 229.322L242.437 233.423L237.866 231.006L256.52 212.938L262.954 216.341ZM255.118 229.519L257.25 218.522L249.361 226.475L255.118 229.519Z" fill="#E0DBCF"/>
<path d="M233.177 123.512L229.621 121.632L220.226 139.398L223.782 141.279L233.177 123.512Z" fill="#E0DBCF"/>
<path d="M169.2 244.495L165.645 242.615L156.249 260.382L159.805 262.262L169.2 244.495Z" fill="#E0DBCF"/>
</g>
</g>
<defs>
<clipPath id="clip0">
<rect width="286.917" height="285.583" fill="white" transform="translate(134.432 0.491943) rotate(27.87)"/>
</clipPath>
</defs>
</svg>
