<svg width="18" height="17" viewBox="0 0 18 17" fill="none" xmlns="http://www.w3.org/2000/svg">
<path d="M15.4363 2.2424L15.4362 2.24248L15.4447 2.2509C16.1742 2.9751 16.5874 3.99389 16.5874 5.23382V12.0333C16.5874 13.3123 16.1708 14.3561 15.4201 15.0738C14.6888 15.7717 13.6557 16.1855 12.3665 16.1855H5.58324C4.35669 16.1855 3.32529 15.8024 2.56337 15.0742C1.77661 14.3211 1.36236 13.2755 1.36236 12.0003V5.23382C1.36236 3.94345 1.79278 2.91676 2.50096 2.21377C3.20957 1.51037 4.24619 1.0816 5.54999 1.0816H12.3998C13.6566 1.0816 14.7115 1.49528 15.4363 2.2424ZM2.70933 14.8927L2.71576 14.8991L2.72236 14.9053C3.46107 15.5978 4.45874 15.9349 5.58324 15.9349H12.3665C13.491 15.9349 14.4887 15.5978 15.2274 14.9053C15.9661 14.2128 16.392 13.2141 16.392 12.0333V5.23382C16.392 4.12634 16.0053 3.14103 15.3196 2.42038L15.3134 2.41382L15.307 2.40744C14.5643 1.67026 13.5584 1.33224 12.433 1.33224H5.58324C4.47029 1.33224 3.42569 1.66334 2.70933 2.37443C1.96613 3.11218 1.62424 4.11315 1.62424 5.23382V12.0003C1.62424 13.1507 1.96421 14.1531 2.70933 14.8927ZM5.35268 8.60115C5.35268 6.6153 6.98983 5.01006 8.97502 5.01006C10.957 5.01006 12.5974 6.6451 12.5974 8.60115C12.5974 10.5604 10.987 12.1922 8.97502 12.1922C6.95982 12.1922 5.35268 10.5902 5.35268 8.60115ZM5.61455 8.60115C5.61455 10.4409 7.13305 11.9416 8.97502 11.9416C10.817 11.9416 12.3355 10.4409 12.3355 8.60115C12.3355 6.76136 10.817 5.2607 8.97502 5.2607C7.13305 5.2607 5.61455 6.76136 5.61455 8.60115ZM13.7279 4.27366C13.7279 4.44785 13.5843 4.59702 13.3974 4.59702C13.2105 4.59702 13.067 4.44785 13.067 4.27366C13.067 4.09946 13.2105 3.95029 13.3974 3.95029C13.5843 3.95029 13.7279 4.09946 13.7279 4.27366Z" fill="#231F20" stroke="black" stroke-width="1.2677"/>
</svg>
