<svg width="8" height="15" viewBox="0 0 8 15" fill="none" xmlns="http://www.w3.org/2000/svg">
<path d="M4.53787 14.1793H2.82191V14.1743V14.1648V14.1552V14.1455V14.1357V14.1259V14.1161V14.1062V14.0962V14.0861V14.076V14.0659V14.0556V14.0454V14.035V14.0246V14.0142V14.0036V13.9931V13.9824V13.9717V13.961V13.9502V13.9393V13.9284V13.9174V13.9063V13.8952V13.8841V13.8729V13.8616V13.8503V13.8389V13.8274V13.8159V13.8044V13.7928V13.7811V13.7694V13.7577V13.7458V13.734V13.722V13.71V13.698V13.6859V13.6738V13.6616V13.6493V13.637V13.6247V13.6122V13.5998V13.5873V13.5747V13.5621V13.5494V13.5367V13.5239V13.5111V13.4982V13.4853V13.4724V13.4593V13.4463V13.4332V13.42V13.4068V13.3935V13.3802V13.3668V13.3534V13.34V13.3264V13.3129V13.2993V13.2856V13.2719V13.2582V13.2444V13.2306V13.2167V13.2028V13.1888V13.1748V13.1607V13.1466V13.1324V13.1182V13.104V13.0897V13.0754V13.061V13.0466V13.0321V13.0176V13.0031V12.9885V12.9738V12.9591V12.9444V12.9297V12.9149V12.9V12.8851V12.8702V12.8552V12.8402V12.8251V12.8101V12.7949V12.7797V12.7645V12.7493V12.734V12.7186V12.7033V12.6879V12.6724V12.6569V12.6414V12.6258V12.6102V12.5946V12.5789V12.5632V12.5474V12.5316V12.5158V12.4999V12.484V12.4681V12.4521V12.4361V12.4201V12.404V12.3879V12.3717V12.3555V12.3393V12.3231V12.3068V12.2905V12.2741V12.2577V12.2413V12.2248V12.2084V12.1918V12.1753V12.1587V12.1421V12.1254V12.1087V12.092V12.0753V12.0585V12.0417V12.0249V12.008V11.9911V11.9742V11.9572V11.9402V11.9232V11.9061V11.8891V11.872V11.8548V11.8377V11.8205V11.8032V11.786V11.7687V11.7514V11.7341V11.7167V11.6993V11.6819V11.6645V11.647V11.6295V11.612V11.5945V11.5769V11.5593V11.5417V11.5241V11.5064V11.4887V11.471V11.4532V11.4355V11.4177V11.3999V11.382V11.3642V11.3463V11.3284V11.3105V11.2925V11.2745V11.2565V11.2385V11.2205V11.2024V11.1843V11.1662V11.1481V11.13V11.1118V11.0936V11.0754V11.0572V11.039V11.0207V11.0024V10.9841V10.9658V10.9475V10.9291V10.9107V10.8924V10.8739V10.8555V10.8371V10.8186V10.8001V10.7816V10.7631V10.7446V10.7261V10.7075V10.6889V10.6703V10.6517V10.6331V10.6145V10.5958V10.5771V10.5585V10.5398V10.5211V10.5023V10.4836V10.4649V10.4461V10.4273V10.4085V10.3897V10.3709V10.3521V10.3333V10.3144V10.2955V10.2767V10.2578V10.2389V10.22V10.2011V10.1822V10.1632V10.1443V10.1253V10.1064V10.0874V10.0684V10.0494V10.0304V10.0114V9.99238V9.97335V9.95432V9.93528V9.91623V9.89717V9.87811V9.85904V9.83996V9.82088V9.80179V9.78269V9.76359V9.74448V9.72537V9.70625V9.68713V9.668V9.64887V9.62973V9.61059V9.59144V9.57229V9.55314V9.53398V9.51482V9.49566V9.47649V9.45732V9.43815V9.41897V9.3998V9.38062V9.36144V9.34226V9.32308V9.30389V9.28471V9.26552V9.24633V9.22715V9.20796V9.18877V9.16959V9.1504V9.13122V9.11203V9.09285V9.07367V9.05449V9.03531V9.01613V8.99696V8.97779V8.95862V8.93945V8.92028V8.90112V8.88196V8.86281V8.84366V8.82451V8.80537V8.78623V8.7671V8.74797V8.72884V8.70972V8.69061V8.6715V8.6524V8.6333V8.61421V8.59513V8.57605V8.55698V8.53791V8.51886V8.49981V8.48076V8.46173V8.4427V8.42368V8.40467V8.38567V8.36668V8.34769V8.32872V8.30975V8.29079V8.27185V8.25291V8.23398V8.21507V8.19616V8.17727V8.15838V8.13951V8.12065V8.1018V8.08296V8.06413V8.04531V8.02651V8.00772V7.98895V7.97018V7.95143V7.93269V7.91397V7.89526V7.87656V7.85788V7.83921V7.82055V7.80192V7.16807H2.18806H1.40338V5.95802H2.18806H2.82191V5.32417V3.72133C2.82191 3.23266 2.94348 2.64824 3.27989 2.20199C3.59264 1.78715 4.14762 1.4144 5.19791 1.41412C5.1983 1.41412 5.19869 1.41412 5.19908 1.41412L6.77479 1.42013V2.5594H6.77289H6.76863H6.76436H6.7601H6.75582H6.75155H6.74727H6.74298H6.73869H6.7344H6.7301H6.7258H6.7215H6.71719H6.71288H6.70857H6.70425H6.69993H6.69561H6.69128H6.68695H6.68262H6.67829H6.67396H6.66962H6.66528H6.66094H6.65659H6.65225H6.6479H6.64355H6.6392H6.63485H6.6305H6.62614H6.62179H6.61743H6.61308H6.60872H6.60436H6.6H6.59564H6.59128H6.58692H6.58256H6.57821H6.57385H6.56949H6.56513H6.56077H6.55641H6.55206H6.5477H6.54335H6.53899H6.53464H6.53029H6.52594H6.52159H6.51724H6.5129H6.50855H6.50421H6.49987H6.49553H6.4912H6.48686H6.48253H6.4782H6.47388H6.46956H6.46524H6.46092H6.45661H6.4523H6.44799H6.44368H6.43938H6.43509H6.43079H6.4265H6.42222H6.41794H6.41366H6.40939H6.40512H6.40086H6.3966H6.39234H6.38809H6.38385H6.37961H6.37537H6.37115H6.36692H6.3627H6.35849H6.35428H6.35008H6.34589H6.3417H6.33751H6.33334H6.32917H6.325H6.32084H6.31669H6.31255H6.30841H6.30428H6.30016H6.29604H6.29193H6.28783H6.28374H6.27965H6.27557H6.2715H6.26744H6.26339H6.25934H6.2553H6.25127H6.24725H6.24324H6.23923H6.23524H6.23125H6.22728H6.22331H6.21935H6.2154H6.21146H6.20753H6.20361H6.1997H6.1958H6.19191H6.18803H6.18416H6.1803H6.17645H6.17261H6.16879H6.16497H6.16116H6.15737H6.15358H6.14981H6.14605H6.1423H6.13856H6.13483H6.13112H6.12741H6.12372H6.12004H6.11638H6.11272H6.10908H6.10545H6.10183H6.09823H6.09464H6.09106H6.08749H6.08394H6.0804H6.07687H6.07336H6.06986H6.06638H6.06291H6.05945H6.05601H6.05258H6.04916H6.04576H6.04238H6.03901H6.03565H6.03231H6.02898H6.02567H6.02237H6.01909H6.01583H6.01257H6.00934H6.00612H6.00292H5.99973H5.99656H5.9934H5.99026H5.98714H5.98403H5.98094H5.97787H5.97481H5.97177H5.96875H5.96574H5.96276H5.95978H5.95683H5.95389H5.95097H5.94807H5.94519H5.94233H5.93948H5.93665H5.93384H5.93105H5.92827H5.92552H5.92278H5.92006H5.91736H5.91468H5.91202H5.90938H5.90676H5.90416H5.90158H5.89901H5.89647H5.89394H5.89144H5.88896H5.88649H5.88405H5.88163H5.87923H5.87685H5.87449H5.87215H5.86983H5.86753H5.86525H5.863H5.86076H5.85855H5.85636H5.85419H5.85205H5.84992H5.84782H5.84574H5.84368H5.84164H5.83963H5.83764H5.83567H5.83373H5.8318H5.82991H5.82803H5.82618H5.82435H5.82254H5.82076H5.819H5.81727H5.81555H5.81387H5.8122H5.81057H5.80895H5.80736H5.8058H5.80426C5.586 2.5594 5.2693 2.61043 4.99428 2.8302C4.69296 3.07097 4.53787 3.43651 4.53787 3.86773V5.32417V5.95802H5.17172H6.74132L6.61425 7.16807H5.17172H4.53787V7.80192V7.82033V7.83877V7.85722V7.87569V7.89417V7.91267V7.93119V7.94972V7.96826V7.98682V8.00539V8.02398V8.04259V8.0612V8.07983V8.09848V8.11713V8.1358V8.15449V8.17318V8.19189V8.21061V8.22935V8.24809V8.26685V8.28562V8.3044V8.32319V8.34199V8.3608V8.37962V8.39846V8.4173V8.43615V8.45501V8.47389V8.49277V8.51166V8.53056V8.54946V8.56838V8.5873V8.60624V8.62518V8.64412V8.66308V8.68204V8.70101V8.71999V8.73897V8.75796V8.77695V8.79595V8.81496V8.83397V8.85299V8.87201V8.89104V8.91008V8.92911V8.94815V8.9672V8.98625V9.0053V9.02436V9.04342V9.06248V9.08155V9.10062V9.11969V9.13876V9.15784V9.17691V9.19599V9.21507V9.23415V9.25323V9.27232V9.2914V9.31049V9.32957V9.34865V9.36774V9.38682V9.40591V9.42499V9.44407V9.46315V9.48223V9.50131V9.52038V9.53945V9.55853V9.57759V9.59666V9.61572V9.63478V9.65384V9.67289V9.69194V9.71099V9.73003V9.74906V9.7681V9.78712V9.80615V9.82516V9.84418V9.86318V9.88218V9.90118V9.92017V9.93915V9.95813V9.9771V9.99606V10.015V10.034V10.0529V10.0718V10.0908V10.1097V10.1286V10.1475V10.1664V10.1853V10.2041V10.223V10.2418V10.2607V10.2795V10.2983V10.3171V10.3359V10.3547V10.3735V10.3923V10.411V10.4298V10.4485V10.4672V10.4859V10.5046V10.5233V10.542V10.5607V10.5793V10.5979V10.6165V10.6351V10.6537V10.6723V10.6909V10.7094V10.7279V10.7465V10.765V10.7834V10.8019V10.8204V10.8388V10.8572V10.8756V10.894V10.9124V10.9307V10.949V10.9674V10.9857V11.0039V11.0222V11.0404V11.0587V11.0769V11.0951V11.1132V11.1314V11.1495V11.1676V11.1857V11.2038V11.2218V11.2398V11.2578V11.2758V11.2938V11.3117V11.3296V11.3475V11.3654V11.3833V11.4011V11.4189V11.4367V11.4545V11.4722V11.4899V11.5076V11.5253V11.5429V11.5605V11.5781V11.5957V11.6132V11.6307V11.6482V11.6657V11.6831V11.7006V11.7179V11.7353V11.7526V11.7699V11.7872V11.8045V11.8217V11.8389V11.8561V11.8732V11.8903V11.9074V11.9245V11.9415V11.9585V11.9755V11.9924V12.0093V12.0262V12.043V12.0599V12.0766V12.0934V12.1101V12.1268V12.1435V12.1601V12.1767V12.1933V12.2098V12.2263V12.2428V12.2592V12.2756V12.292V12.3083V12.3247V12.3409V12.3572V12.3734V12.3895V12.4057V12.4218V12.4378V12.4538V12.4698V12.4858V12.5017V12.5176V12.5334V12.5493V12.565V12.5808V12.5965V12.6121V12.6278V12.6433V12.6589V12.6744V12.6899V12.7053V12.7207V12.7361V12.7514V12.7667V12.7819V12.7971V12.8122V12.8274V12.8424V12.8575V12.8725V12.8874V12.9023V12.9172V12.932V12.9468V12.9616V12.9763V12.9909V13.0056V13.0201V13.0347V13.0492V13.0636V13.078V13.0924V13.1067V13.1209V13.1352V13.1493V13.1635V13.1776V13.1916V13.2056V13.2196V13.2335V13.2473V13.2611V13.2749V13.2886V13.3023V13.3159V13.3295V13.343V13.3565V13.3699V13.3833V13.3967V13.41V13.4232V13.4364V13.4495V13.4626V13.4757V13.4887V13.5016V13.5145V13.5273V13.5401V13.5529V13.5656V13.5782V13.5908V13.6033V13.6158V13.6282V13.6406V13.6529V13.6652V13.6774V13.6896V13.7017V13.7138V13.7258V13.7377V13.7496V13.7615V13.7732V13.785V13.7967V13.8083V13.8198V13.8314V13.8428V13.8542V13.8656V13.8768V13.8881V13.8992V13.9104V13.9214V13.9324V13.9434V13.9542V13.9651V13.9758V13.9866V13.9972V14.0078V14.0183V14.0288V14.0392V14.0496V14.0599V14.0701V14.0803V14.0904V14.1004V14.1104V14.1204V14.1302V14.14V14.1498V14.1595V14.1691V14.1786V14.1793Z" fill="#231F20" stroke="black" stroke-width="1.2677"/>
</svg>
