<svg width="18" height="10" viewBox="0 0 18 10" fill="none" xmlns="http://www.w3.org/2000/svg">
<path d="M8.6342 9.0373H8.65189H9.66245C9.67444 9.03501 9.68889 9.03188 9.70428 9.02782L9.70428 9.02722C9.70427 9.0138 9.70438 8.99559 9.7048 8.97319C9.70563 8.9285 9.70767 8.86654 9.71249 8.79236C9.72198 8.64605 9.74287 8.4424 9.79009 8.22553C9.83619 8.01379 9.9142 7.75691 10.0544 7.52374C10.1966 7.28715 10.4302 7.03254 10.7942 6.92378L10.798 6.92266L10.798 6.92267C11.2254 6.79785 11.6005 6.97204 11.8396 7.1276C12.087 7.2886 12.3219 7.51628 12.5243 7.72457C12.6257 7.82889 12.7139 7.92275 12.7994 8.01368C12.9095 8.1309 13.0151 8.24326 13.1385 8.36691C13.341 8.56993 13.5193 8.72712 13.6801 8.82987C13.9331 8.98993 14.1403 9.04381 14.2681 9.06198C14.3331 9.07122 14.3798 9.07152 14.4038 9.07067C14.4097 9.07047 14.4142 9.07019 14.4172 9.06997L14.4544 9.06319L14.5077 9.06253L16.8413 9.03343C16.8415 9.0334 16.8418 9.03337 16.8421 9.03334C16.8448 9.03307 16.8479 9.03273 16.8514 9.03234C16.8707 9.03014 16.8999 9.02618 16.9339 9.01957C16.9467 9.01709 16.9591 9.01442 16.9711 9.01162C16.9676 9.00577 16.9639 8.99967 16.9601 8.99328C16.9153 8.91828 16.8467 8.80341 16.6682 8.5871C16.4399 8.31052 16.0404 7.88382 15.3547 7.29414L15.3539 7.29345C15.3313 7.27398 15.3089 7.25465 15.2866 7.23544C14.9652 6.95844 14.6752 6.70846 14.4844 6.47853C14.2513 6.19765 14.0748 5.83767 14.1786 5.38364C14.2589 5.03191 14.4997 4.70543 14.7352 4.40825C14.8532 4.25942 15.0087 4.07252 15.1864 3.85899C15.3659 3.64328 15.5679 3.4004 15.7768 3.14216C16.3103 2.48186 16.6625 1.976 16.8628 1.60889C16.9058 1.52997 16.9396 1.46155 16.9657 1.40293C16.9344 1.40265 16.9046 1.40323 16.8777 1.40429C16.849 1.40541 16.826 1.40699 16.8112 1.40817L16.7962 1.40945L16.796 1.40948C16.7959 1.40949 16.796 1.40947 16.7959 1.40948C16.7958 1.40949 16.7958 1.40949 16.7957 1.4095C16.7954 1.40952 16.7954 1.40953 16.7952 1.40955C16.795 1.40958 16.7947 1.40961 16.7946 1.40962C16.7945 1.40963 16.7941 1.40967 16.7941 1.40968L16.794 1.40968L16.7634 1.41308L16.7304 1.41329L14.072 1.43007L14.0449 1.43024C14.0323 1.46021 14.0161 1.49824 13.9966 1.54325C13.9461 1.65993 13.8731 1.8241 13.782 2.01668C13.6011 2.39907 13.3431 2.9056 13.0431 3.37722C12.4423 4.32226 11.9866 4.8806 11.62 5.18834C11.4357 5.34309 11.2349 5.46801 11.0144 5.52204C10.77 5.58192 10.5312 5.54626 10.3322 5.42631C9.82902 5.12381 9.72239 4.56781 9.69072 4.22769C9.66733 3.97657 9.67564 3.67126 9.68189 3.4413C9.68424 3.35527 9.68629 3.27978 9.68629 3.22163C9.68629 2.7918 9.70237 2.41931 9.71572 2.10992C9.71691 2.08231 9.71808 2.0552 9.71922 2.02859C9.73361 1.6912 9.74057 1.46255 9.72673 1.28942C9.7182 1.18265 9.70363 1.13138 9.69629 1.11122C9.68222 1.10456 9.65515 1.09425 9.60798 1.08339C9.60159 1.082 9.59524 1.08062 9.58893 1.07924C9.35463 1.02813 9.17572 0.989106 8.50361 0.985279L8.50162 0.985268C8.02632 0.981063 7.61275 0.982569 7.26606 1.00821C7.24399 1.00985 7.22243 1.01156 7.20137 1.01336C7.44101 1.32929 7.5186 1.75037 7.55084 1.99079C7.56981 2.13227 7.57843 2.25914 7.58242 2.35045C7.58442 2.3965 7.58529 2.43451 7.58565 2.46201L7.58578 2.48138L7.58612 2.48636C7.58728 2.5039 7.58885 2.52891 7.59062 2.5604C7.59416 2.62333 7.59853 2.7125 7.60204 2.81996C7.609 3.0336 7.61275 3.32549 7.59874 3.62999C7.585 3.92847 7.55312 4.26742 7.47933 4.56379C7.44248 4.71179 7.38931 4.87377 7.30762 5.02245C7.22829 5.16683 7.09415 5.3493 6.87161 5.46165L8.6342 9.0373ZM8.6342 9.0373L8.61932 9.03814C8.61971 9.03812 8.61954 9.03813 8.61885 9.03816L8.61879 9.03816L8.61834 9.03819L8.60834 9.03851C8.59717 9.0388 8.57779 9.03915 8.55083 9.03902C8.49687 9.03877 8.4128 9.03661 8.30353 9.0284C8.08466 9.01195 7.76695 8.97137 7.38897 8.8742C6.63416 8.68017 5.64382 8.26214 4.71179 7.36091C3.6592 6.3425 2.64163 4.792 1.87437 3.45927C1.4946 2.79961 1.18324 2.20593 0.967005 1.7775C0.896744 1.63828 0.836618 1.5167 0.787546 1.41617M8.6342 9.0373L0.787546 1.41617M0.787546 1.41617L3.04917 1.40112C3.05644 1.40292 3.06446 1.40504 3.07298 1.40749C3.09402 1.41354 3.11427 1.42053 3.13169 1.42795C3.13706 1.43023 3.14168 1.43236 3.14559 1.43427C3.14929 1.44002 3.15222 1.44527 3.15395 1.44856L3.15532 1.45176L3.17051 1.48687C3.18363 1.51698 3.20267 1.5602 3.22709 1.61446C3.27589 1.7229 3.34641 1.87587 3.43439 2.05661C3.60924 2.4158 3.85747 2.89379 4.14503 3.35209C4.67431 4.20168 5.09719 4.77804 5.46141 5.11992C5.64466 5.29193 5.85406 5.4444 6.09489 5.52049C6.36264 5.60509 6.63155 5.58277 6.87111 5.46191L0.787546 1.41617ZM9.7092 1.11876C9.70902 1.11884 9.70741 1.11789 9.70488 1.11569C9.70811 1.11758 9.70938 1.11868 9.7092 1.11876ZM13.9737 1.42774C13.9737 1.42767 13.9751 1.42735 13.9782 1.42703C13.9753 1.42765 13.9738 1.42781 13.9737 1.42774ZM14.0724 1.37641C14.0742 1.37425 14.0751 1.37332 14.0752 1.37339C14.0752 1.37346 14.0743 1.37454 14.0724 1.37641ZM17.0434 1.17083C17.0435 1.16883 17.0436 1.16777 17.0436 1.16775L17.0434 1.17083ZM17.0468 9.15157C17.0467 9.15156 17.0464 9.1504 17.046 9.14816C17.0466 9.15047 17.0468 9.15159 17.0468 9.15157ZM17.1185 8.9585C17.1193 8.95783 17.1198 8.95751 17.1198 8.95752L17.1185 8.9585ZM3.1385 1.42412C3.13732 1.42286 3.13676 1.42216 3.13678 1.42212C3.1368 1.42208 3.13739 1.42271 3.1385 1.42412Z" fill="#231F20" stroke="black" stroke-width="1.2677"/>
</svg>
