<svg width="27" height="247" viewBox="0 0 27 247" fill="none" xmlns="http://www.w3.org/2000/svg">
<path d="M25.813 234.483C25.813 228.681 22.7899 224.528 17.0489 224.131L17.0489 231.032C19.2476 231.277 20.2553 232.681 20.2553 234.636C20.2553 237.323 18.2704 238.789 14.606 238.789L14.3617 238.789C10.6668 238.789 8.71241 237.293 8.71241 234.758C8.71241 232.804 9.81173 231.765 11.8577 231.552L11.8577 224.406C5.93357 224.895 3.24633 228.925 3.24633 234.789C3.24633 241.262 7.64363 246.087 14.3922 246.087L14.6365 246.087C21.3241 246.087 25.813 242.392 25.813 234.483ZM3.58224 223.164L25.416 223.164L25.416 216.263L17.9345 216.263L17.9345 215.163L25.416 211.102L25.416 203.834L16.4993 208.812C15.5221 206.644 13.812 205.117 10.7889 205.117L10.6668 205.117C5.99464 205.117 3.58224 208.17 3.58224 214.247L3.58224 223.164ZM13.4761 214.644L13.4761 216.263L8.77348 216.263L8.77348 214.614C8.77348 212.751 9.38422 211.804 10.9721 211.804L11.0943 211.804C12.6822 211.804 13.4761 212.751 13.4761 214.644ZM20.3774 192.743C20.3774 195.522 18.362 197.232 14.606 197.232L14.3617 197.232C10.6057 197.232 8.65134 195.492 8.65134 192.805C8.65134 190.026 10.6668 188.285 14.3617 188.285L14.606 188.285C18.2704 188.285 20.3774 190.026 20.3774 192.743ZM25.813 192.927C25.813 185.751 21.263 181.078 14.4533 181.078L14.209 181.078C7.30772 181.078 3.24633 186.086 3.24633 192.805C3.24633 199.339 7.64362 204.47 14.3922 204.47L14.6365 204.47C21.263 204.47 25.813 200.103 25.813 192.927ZM25.813 171.87C25.813 166.038 22.4234 162.831 18.3926 162.831C13.5372 162.831 12.1325 165.885 11.5523 171.382C11.2164 173.794 10.7889 174.435 9.72012 174.435C8.77348 174.435 8.13221 173.702 8.13221 172.267C8.13221 170.801 8.89563 170.038 10.2392 169.885L10.2392 163.473C5.44498 163.839 3.27687 166.801 3.27687 172.267C3.27687 177.733 6.2084 181.001 10.2392 181.001C14.7587 181.001 16.5298 178.863 17.2627 172.573C17.5986 170.221 17.9956 169.458 19.1254 169.458C20.1942 169.458 20.9271 170.252 20.9271 171.87C20.9271 174.13 19.7972 174.832 18.4231 174.924L18.4231 181.489C23.3395 181.337 25.813 178.069 25.813 171.87ZM25.813 153.596C25.813 147.763 22.4234 144.557 18.3926 144.557C13.5372 144.557 12.1325 147.611 11.5523 153.107C11.2164 155.52 10.7889 156.161 9.72012 156.161C8.77348 156.161 8.13221 155.428 8.13221 153.993C8.13221 152.527 8.89563 151.764 10.2392 151.611L10.2392 145.198C5.44497 145.565 3.27687 148.527 3.27687 153.993C3.27687 159.459 6.2084 162.726 10.2392 162.726C14.7587 162.726 16.5298 160.589 17.2627 154.298C17.5986 151.947 17.9956 151.183 19.1254 151.183C20.1942 151.183 20.9271 151.977 20.9271 153.596C20.9271 155.856 19.7972 156.558 18.4231 156.65L18.4231 163.215C23.3395 163.062 25.813 159.795 25.813 153.596ZM3.58223 113.57L25.416 120.441L25.416 113.998L21.7821 113.02L21.7821 106.119L25.416 105.111L25.416 97.7825L3.58223 104.623L3.58223 113.57ZM17.0795 111.707L9.17046 109.539L17.0795 107.402L17.0795 111.707ZM3.58223 97.0568L25.416 97.0568L25.416 90.1555L17.9345 90.1555L17.9345 89.0562L25.416 84.9948L25.416 77.727L16.4993 82.7045C15.5221 80.5364 13.812 79.0096 10.7889 79.0096L10.6668 79.0096C5.99463 79.0096 3.58223 82.0633 3.58223 88.1401L3.58223 97.0568ZM13.4761 88.537L13.4761 90.1555L8.77348 90.1555L8.77348 88.5065C8.77348 86.6438 9.38421 85.6971 10.9721 85.6971L11.0943 85.6971C12.6822 85.6971 13.4761 86.6438 13.4761 88.537ZM8.89563 73.3777L25.416 73.3777L25.416 66.4153L8.89563 66.4153L8.89563 60.8882L3.58223 60.8882L3.58223 78.8743L8.89563 78.8743L8.89563 73.3777Z" fill="#1D1916"/>
<path d="M14.323 133.62L10.1727 137.759L7.78625 135.379L11.9366 131.24L7.73437 127.049L10.1727 124.618L14.3749 128.808L18.5253 124.67L20.9117 127.049L16.7614 131.188L20.9636 135.379L18.5253 137.81L14.323 133.62Z" fill="#1D1916" stroke="#1D1916" stroke-width="1.57869"/>
</svg>
