<svg width="160" height="20" viewBox="0 0 160 20" fill="none" xmlns="http://www.w3.org/2000/svg">
<path d="M9.98664 19.6977C14.9733 19.6977 18.5426 17.0994 18.8838 12.1652H12.9524C12.7424 14.0549 11.5351 14.921 9.85542 14.921C7.54583 14.921 6.28606 13.2151 6.28606 10.0656V9.85566C6.28606 6.67998 7.57208 5.00028 9.75044 5.00028C11.4301 5.00028 12.3225 5.94511 12.5062 7.70354H18.6476C18.2277 2.61196 14.7633 0.302368 9.72419 0.302368C4.16019 0.302368 0.0134277 4.08169 0.0134277 9.8819V10.0919C0.0134277 15.8396 3.18911 19.6977 9.98664 19.6977Z" fill="#1D1916"/>
<path d="M19.715 0.591066V19.3565H25.6465V12.9264H26.5913L30.0819 19.3565H36.3283L32.0503 11.6928C33.9137 10.853 35.226 9.38324 35.226 6.78496V6.67998C35.226 2.66444 32.6015 0.591066 27.3787 0.591066H19.715ZM27.0375 9.09455H25.6465V5.05277H27.0637C28.6647 5.05277 29.4783 5.57767 29.4783 6.94243V7.04741C29.4783 8.41217 28.6647 9.09455 27.0375 9.09455Z" fill="#1D1916"/>
<path d="M45.8605 15.026C43.4722 15.026 42.0024 13.2938 42.0024 10.0656V9.85566C42.0024 6.62749 43.4984 4.94779 45.808 4.94779C48.1963 4.94779 49.6923 6.67998 49.6923 9.85566V10.0656C49.6923 13.2151 48.1963 15.026 45.8605 15.026ZM45.703 19.6977C51.8707 19.6977 55.8862 15.7871 55.8862 9.9344V9.72443C55.8862 3.79299 51.582 0.302368 45.808 0.302368C40.1915 0.302368 35.7823 4.08169 35.7823 9.8819V10.0919C35.7823 15.7871 39.5354 19.6977 45.703 19.6977Z" fill="#1D1916"/>
<path d="M63.8004 19.6977C68.8132 19.6977 71.569 16.7844 71.569 13.32C71.569 9.14704 68.9445 7.93975 64.2203 7.44109C62.1469 7.15239 61.5958 6.78496 61.5958 5.86637C61.5958 5.05277 62.2257 4.50162 63.4592 4.50162C64.719 4.50162 65.3751 5.15775 65.5063 6.31254H71.0179C70.7029 2.19203 68.1571 0.328613 63.4592 0.328613C58.7613 0.328613 55.953 2.84816 55.953 6.31254C55.953 10.1968 57.7902 11.7191 63.1967 12.349C65.2176 12.6377 65.8738 12.9789 65.8738 13.9499C65.8738 14.8685 65.1914 15.4984 63.8004 15.4984C61.8582 15.4984 61.2546 14.5273 61.1759 13.3463H55.5331C55.6643 17.5718 58.4726 19.6977 63.8004 19.6977Z" fill="#1D1916"/>
<path d="M79.5066 19.6977C84.5194 19.6977 87.2752 16.7844 87.2752 13.32C87.2752 9.14704 84.6507 7.93975 79.9265 7.44109C77.8531 7.15239 77.302 6.78496 77.302 5.86637C77.302 5.05277 77.9318 4.50162 79.1654 4.50162C80.4251 4.50162 81.0813 5.15775 81.2125 6.31254H86.724C86.4091 2.19203 83.8633 0.328613 79.1654 0.328613C74.4675 0.328613 71.6592 2.84816 71.6592 6.31254C71.6592 10.1968 73.4964 11.7191 78.9029 12.349C80.9238 12.6377 81.5799 12.9789 81.5799 13.9499C81.5799 14.8685 80.8976 15.4984 79.5066 15.4984C77.5644 15.4984 76.9608 14.5273 76.882 13.3463H71.2393C71.3705 17.5718 74.1788 19.6977 79.5066 19.6977Z" fill="#1D1916"/>
<path d="M113.907 0.591066L108.002 19.3565H113.54L114.38 16.2333H120.311L121.177 19.3565H127.476L121.597 0.591066H113.907ZM115.508 12.1915L117.372 5.39396L119.209 12.1915H115.508Z" fill="#1D1916"/>
<path d="M128.1 0.591066V19.3565H134.031V12.9264H134.976L138.467 19.3565H144.713L140.435 11.6928C142.299 10.853 143.611 9.38324 143.611 6.78496V6.67998C143.611 2.66444 140.986 0.591066 135.764 0.591066H128.1ZM135.422 9.09455H134.031V5.05277H135.449C137.05 5.05277 137.863 5.57767 137.863 6.94243V7.04741C137.863 8.41217 137.05 9.09455 135.422 9.09455Z" fill="#1D1916"/>
<path d="M148.451 5.15775V19.3565H154.435V5.15775H159.186V0.591066H143.727V5.15775H148.451Z" fill="#1D1916"/>
<path d="M96.6753 9.82246L93.1182 6.25539L95.1635 4.20432L98.7207 7.77139L102.322 4.15973L104.412 6.25539L100.81 9.86705L104.368 13.4341L102.322 15.4852L98.7651 11.9181L95.1635 15.5298L93.0737 13.4341L96.6753 9.82246Z" fill="#1D1916" stroke="#1D1916" stroke-width="1.57869"/>
<path fill-rule="evenodd" clip-rule="evenodd" d="M102.322 3.19897L105.37 6.2554L101.769 9.86707L105.326 13.4341L102.322 16.446L98.7651 12.8789L95.1635 16.4906L92.1156 13.4341L95.7172 9.82248L92.1601 6.2554L95.1635 3.24356L98.7206 6.81064L102.322 3.19897ZM102.322 5.12051L98.7206 8.73218L95.1635 5.1651L94.0762 6.2554L97.6334 9.82248L94.0318 13.4341L95.1635 14.569L98.7651 10.9574L102.322 14.5244L103.41 13.4341L99.8524 9.86707L103.454 6.2554L102.322 5.12051Z" fill="#1D1916" stroke="#1D1916" stroke-width="1.57869"/>
</svg>
