<svg width="31" height="31" viewBox="0 0 31 31" fill="none" xmlns="http://www.w3.org/2000/svg">
<g clip-path="url(#clip0)">
<path d="M27.2035 11.6977C27.2035 5.34707 22.0557 0.200195 15.7056 0.200195C9.44493 0.200195 4.3618 5.20785 4.22071 11.4352C4.21649 11.4333 4.21133 11.4333 4.20758 11.4333C4.20477 11.4896 4.21368 11.5463 4.21227 11.603C4.2118 11.6344 4.20758 11.6663 4.20758 11.6977C4.20758 11.8121 4.22165 11.9222 4.22493 12.0352C4.3543 19.5061 12.7988 27.3896 15.7056 30.1955C23.8688 23.5772 26.2454 17.438 26.9321 14.1647C26.957 14.0499 26.979 13.9355 27.0001 13.8207C27.0662 13.4682 27.1121 13.1522 27.144 12.8813C27.144 12.878 27.1449 12.8747 27.1449 12.8714C27.2307 12.1149 27.2035 11.6977 27.2035 11.6977Z" fill="#241F20"/>
<circle cx="15.7096" cy="11.7126" r="4.42056" fill="white"/>
</g>
<defs>
<clipPath id="clip0">
<rect width="30" height="30" fill="white" transform="translate(0.707031 0.197266)"/>
</clipPath>
</defs>
</svg>
