<svg width="31" height="31" viewBox="0 0 31 31" fill="none" xmlns="http://www.w3.org/2000/svg">
<g clip-path="url(#clip0)">
<path d="M27.2035 11.6293C27.2035 5.27871 22.0557 0.131836 15.7056 0.131836C9.44493 0.131836 4.3618 5.13949 4.22071 11.3668C4.21649 11.365 4.21133 11.365 4.20758 11.365C4.20477 11.4212 4.21368 11.4779 4.21227 11.5346C4.2118 11.5661 4.20758 11.5979 4.20758 11.6293C4.20758 11.7437 4.22165 11.8539 4.22493 11.9668C4.3543 19.4378 12.7988 27.3212 15.7056 30.1271C23.8688 23.5089 26.2454 17.3696 26.9321 14.0964C26.957 13.9815 26.979 13.8671 27.0001 13.7523C27.0662 13.3998 27.1121 13.0839 27.144 12.8129C27.144 12.8096 27.1449 12.8064 27.1449 12.8031C27.2307 12.0465 27.2035 11.6293 27.2035 11.6293Z" fill="#B89C84"/>
<circle cx="15.7096" cy="11.6442" r="4.42056" fill="white"/>
</g>
<defs>
<clipPath id="clip0">
<rect width="30" height="30" fill="white" transform="translate(0.707031 0.128906)"/>
</clipPath>
</defs>
</svg>
