<svg width="100" height="100" viewBox="0 0 100 100" fill="none" xmlns="http://www.w3.org/2000/svg">
<path fill-rule="evenodd" clip-rule="evenodd" d="M50 2.21239C23.6076 2.21239 2.21239 23.6076 2.21239 50C2.21239 76.3924 23.6076 97.7876 50 97.7876C76.3924 97.7876 97.7876 76.3924 97.7876 50C97.7876 23.6076 76.3924 2.21239 50 2.21239ZM0 50C0 22.3858 22.3858 0 50 0C77.6142 0 100 22.3858 100 50C100 77.6142 77.6142 100 50 100C22.3858 100 0 77.6142 0 50Z" fill="#B89C84"/>
<path d="M30.1281 54.999L31.4548 53.6724L24.9969 47.2145L36.1855 48.9416L37.6623 47.4648L28.5512 38.3538L26.8241 40.0809L27.913 40.3687L33.6574 46.1132L22.5189 44.3861L20.4414 46.4636L21.8181 46.6889L30.1281 54.999Z" fill="#B89C84"/>
<path d="M39.209 45.9181L44.5404 40.5867L43.777 38.8721L39.6595 42.9896L36.8061 40.1361L40.1977 36.7445L39.4342 35.0299L35.5671 38.8971L33.0265 36.3566L36.5432 32.8398L35.7798 31.1252L29.6849 37.2201L30.7863 37.4954L39.209 45.9181Z" fill="#B89C84"/>
<path d="M48.8324 36.2947L50.0589 35.0682L48.1066 30.3374L52.8623 32.2648L54.0888 31.0383L48.8074 18.0976L46.83 20.075L47.7812 20.5005L51.2479 29.0234L41.7614 25.1437L39.9216 26.9834L45.7162 29.3487L47.218 33.0532L37.7315 29.1735L35.8918 31.0133L48.8324 36.2947Z" fill="#B89C84"/>
<path fill-rule="evenodd" clip-rule="evenodd" d="M30.8516 68.8378L70.0846 29.531L71.6505 31.0939L32.4174 70.4007L30.8516 68.8378Z" fill="#B89C84"/>
<path d="M52.8957 81.5951L58.6902 75.8006L57.8642 73.9984L53.7467 78.2411L53.7467 73.3852C53.7718 71.4829 53.3963 69.9811 52.1949 68.7796C50.5429 67.1276 48.4028 67.4906 46.8008 69.0925C46.15 69.7433 45.6369 70.5818 45.3491 71.5705C45.1113 72.3339 44.9861 73.0348 44.8985 73.6981L46.1 74.0235C46.3002 72.822 46.5005 71.8458 47.339 71.0073C48.3277 70.0186 49.7794 69.8684 50.8182 70.9072C51.7693 71.8583 51.9821 73.1474 52.0322 74.7243L52.2074 80.9068L52.8957 81.5951Z" fill="#B89C84"/>
<path d="M64.3117 69.0278C64.8373 67.1004 63.5858 64.8978 61.8212 63.1331C59.5184 60.8303 56.4772 59.4161 54.2495 61.6438C53.7239 62.1695 53.3859 62.7326 53.2358 63.3334L52.9229 64.5223C52.4098 66.4371 53.6613 68.6398 55.4259 70.4044C57.7287 72.7072 60.7574 74.1089 62.9851 71.8812C63.5107 71.3556 63.8111 70.8049 63.9863 70.2042L64.3117 69.0278ZM60.5321 65.2982C61.671 66.4371 62.6472 67.7888 62.7223 68.9652C62.7473 69.3156 62.7223 69.6911 62.4845 69.9289C60.9451 71.4682 58.6173 70.1166 56.7275 68.2268C55.5886 67.0879 54.6124 65.7112 54.5248 64.4973C54.5248 64.1719 54.5499 63.7964 54.7876 63.5586C56.3395 62.0068 58.6924 63.4585 60.5321 65.2982Z" fill="#B89C84"/>
<path d="M70.2836 64.2073L71.9731 62.5177L62.8621 53.4067L61.9985 54.2702L60.5217 60.0773L62.1863 60.4903L63.0373 56.961L70.2836 64.2073Z" fill="#B89C84"/>
<path d="M78.8085 54.4558C79.1339 53.2544 78.8586 51.9778 77.9325 51.0517C76.9313 50.0505 75.442 49.8377 74.2155 50.4134C74.253 50.2507 74.3031 50.1005 74.3406 49.9378C74.5909 48.9366 74.3281 47.8478 73.5271 47.0468C72.213 45.7327 70.073 45.8204 68.6587 47.2346C68.1707 47.7227 67.8327 48.3109 67.6575 48.9366L67.3572 50.1131C67.0443 51.2269 67.3321 52.4158 68.1832 53.2669C69.0968 54.1805 70.4109 54.3932 71.4997 53.9052C71.4621 54.0428 71.3996 54.2556 71.337 54.5184C71.0491 55.6322 71.3245 56.8087 72.188 57.6722C73.6022 59.0864 75.88 58.9863 77.4068 57.4595C77.945 56.9213 78.3204 56.2955 78.4957 55.6448L78.8085 54.4558ZM72.3632 49.1369C73.0015 49.7751 73.1517 50.7263 72.6761 51.2019C71.7375 52.1405 70.3233 52.128 69.4222 51.2269C68.884 50.6888 68.5586 49.7126 69.0968 49.1744C70.0604 48.2108 71.4872 48.2608 72.3632 49.1369ZM76.5934 53.1918C77.0314 53.6298 77.2316 54.1805 77.2066 54.7311C77.1816 54.9815 77.1315 55.2818 76.9188 55.4946C75.9301 56.4833 74.3907 56.3957 73.452 55.457C73.0265 55.0315 72.8138 54.4683 72.8388 53.9177C72.8638 53.6674 72.9264 53.3545 73.1141 53.1668C74.0903 52.1906 75.6172 52.2156 76.5934 53.1918Z" fill="#B89C84"/>
</svg>
