<svg width="332" height="177" viewBox="0 0 332 177" fill="none" xmlns="http://www.w3.org/2000/svg">
<g clip-path="url(#clip0)">
<g opacity="0.08">
<path d="M226.767 175.198L103.446 51.0092L81.8203 0.540766L133.293 20.9084L256.614 145.277L226.767 175.198ZM108.629 47.4043L226.588 166.366L247.678 145.097L129.719 26.1355L93.4375 11.8962L108.629 47.4043Z" fill="#1D1916" fill-opacity="0.6"/>
<path d="M111.667 177L82.1773 147.079L134.901 93.9073L139.369 98.4134L90.9348 147.079L111.667 168.168L159.029 120.403L163.319 124.729L111.667 177Z" fill="#1D1916" fill-opacity="0.6"/>
<path d="M204.248 83.6334L199.78 79.1273L248.751 29.7403L228.019 8.83198L178.333 58.9399L174.044 54.4338L228.019 0L257.509 29.7403L204.248 83.6334Z" fill="#1D1916" fill-opacity="0.6"/>
<path d="M108.808 50.6486L103.446 47.5845L105.233 44.3401L101.48 45.9623C101.301 45.4216 84.8587 7.38999 84.8587 7.38999L81.8203 0.360456L134.544 22.17L138.655 47.224L114.527 40.3747L108.808 50.6486ZM93.4375 12.0763C97.5482 21.449 104.34 37.4908 106.484 42.1772L111.489 33.1649L130.791 38.5723L128.825 26.6761L93.4375 12.0763Z" fill="#1D1916" fill-opacity="0.6"/>
<path d="M236.667 129.722L219.985 146.545L224.408 151.006L241.09 134.183L236.667 129.722Z" fill="#1D1916" fill-opacity="0.6"/>
<path d="M106.282 126.577L101.859 131.038L115.887 145.185L120.31 140.724L106.282 126.577Z" fill="#1D1916" fill-opacity="0.6"/>
<path d="M127.736 106.856L123.313 111.317L137.34 125.464L141.764 121.003L127.736 106.856Z" fill="#1D1916" fill-opacity="0.6"/>
<path d="M189.707 40.1719L185.284 44.6327L199.312 58.7797L203.735 54.3189L189.707 40.1719Z" fill="#1D1916" fill-opacity="0.6"/>
<path d="M210.473 20.3336L206.05 24.7943L220.077 38.9414L224.501 34.4806L210.473 20.3336Z" fill="#1D1916" fill-opacity="0.6"/>
</g>
<path d="M43.7501 133.201C42.6778 132.119 42.3203 130.677 42.3203 128.875V128.695C42.3203 126.892 42.8565 125.45 43.9288 124.369C45.0012 123.287 46.431 122.746 48.0395 122.746C49.4693 122.746 50.7204 123.107 51.614 123.828C52.5077 124.549 53.0439 125.63 53.2226 127.072H50.5417C50.363 125.63 49.6481 124.909 48.0395 124.909C46.2523 124.909 45.0012 126.351 45.0012 128.695V128.875C45.0012 131.218 46.0736 132.66 48.0395 132.66C49.4693 132.66 50.5417 131.939 50.7204 130.497H53.2226C53.0439 131.939 52.5077 133.02 51.614 133.741C50.7204 134.462 49.4693 134.823 48.0395 134.823C46.2523 134.823 44.8225 134.282 43.7501 133.201Z" fill="#1D1916"/>
<path d="M53.9375 125.09V123.107H62.8738V125.09H59.8354V134.643H57.1546V125.09H53.9375Z" fill="#1D1916"/>
<path d="M65.0157 134.643V132.48C65.1945 132.48 65.3732 132.66 65.9094 132.66C66.6243 132.66 67.1605 132.299 67.5179 131.398L63.5859 122.927H66.2668L68.769 128.514L71.0924 122.927H73.5946L69.8413 131.759C68.9477 133.561 68.2328 134.823 66.0881 134.823C65.3732 134.823 65.0157 134.643 65.0157 134.643Z" fill="#1D1916"/>
<path d="M72.5234 136.806V132.66H73.2383C73.9532 132.299 74.3107 131.398 74.4894 129.596C74.6681 127.793 74.6681 125.63 74.6681 123.107H83.0683V132.66H84.4981V136.806H82.1746V134.643H75.0256V136.806H72.5234ZM76.2767 132.66H80.5661V125.09H77.1703C77.1703 126.532 76.9916 128.154 76.9916 129.596C76.8129 130.857 76.6341 131.759 76.2767 132.66Z" fill="#1D1916"/>
<path d="M85.9297 122.927H88.6106V131.038L93.4362 122.927H96.1171V134.643H93.4362V126.351L88.6106 134.643H85.9297V122.927Z" fill="#1D1916"/>
<path d="M97.5469 134.643L100.764 129.776C99.3341 129.415 98.4405 128.514 98.4405 126.712C98.4405 124.188 100.228 123.107 102.909 123.107H107.019V134.823H104.16V130.317H102.909L100.049 134.823H97.5469V134.643ZM100.943 126.712C100.943 127.974 101.658 128.514 102.909 128.514H104.16V125.09H102.73C101.658 125.09 100.943 125.45 100.943 126.712Z" fill="#1D1916"/>
<path d="M120.604 122.927C123.463 122.927 125.072 124.188 125.072 126.712C125.072 127.974 124.715 128.875 123.821 129.416C123.106 129.956 122.034 130.317 120.604 130.317H119.174V134.643H116.672V122.927H120.604ZM122.57 126.712C122.57 125.45 121.855 124.909 120.604 124.909H119.353V128.514H120.604C121.855 128.514 122.57 127.974 122.57 126.712Z" fill="#1D1916"/>
<path d="M127.749 133.201C126.677 132.119 126.141 130.677 126.141 128.875V128.695C126.141 126.892 126.677 125.45 127.928 124.369C129 123.287 130.43 122.746 132.217 122.746C134.005 122.746 135.434 123.287 136.507 124.369C137.579 125.45 138.115 126.892 138.115 128.695V128.875C138.115 130.677 137.579 132.119 136.507 133.201C135.434 134.282 134.005 134.823 132.217 134.823C130.251 134.823 128.821 134.282 127.749 133.201ZM134.541 131.759C135.077 131.038 135.434 130.136 135.434 128.875V128.695C135.434 127.613 135.077 126.532 134.541 125.991C134.005 125.27 133.111 124.909 132.217 124.909C131.145 124.909 130.43 125.27 129.894 125.991C129.358 126.712 129 127.613 129 128.875V129.055C129 130.317 129.358 131.218 129.894 131.939C130.43 132.66 131.324 133.02 132.217 133.02C133.111 132.66 134.005 132.299 134.541 131.759Z" fill="#1D1916"/>
<path d="M143.481 122.927L146.162 130.137L148.843 122.927H152.238V134.643H149.557V126.532L146.34 134.643H145.447L142.23 126.532V134.643H139.906V122.927H143.481Z" fill="#1D1916"/>
<path d="M160.994 122.927L164.747 134.643H162.066L161.351 132.119H157.24L156.526 134.643H154.023L157.777 122.927H160.994ZM160.636 130.137L159.028 125.09L157.419 130.137H160.636Z" fill="#1D1916"/>
<path d="M169.036 122.927V127.613H173.683V122.927H176.364V134.643H173.683V129.776H169.036V134.643H166.355V122.927H169.036Z" fill="#1D1916"/>
<path d="M184.942 122.927L188.695 134.643H186.014L185.299 132.119H181.01L180.295 134.643H177.793L181.546 122.927H184.942ZM184.585 130.137L182.976 125.09L181.367 130.137H184.585Z" fill="#1D1916"/>
<path d="M196.203 136.806V132.66H196.918C197.633 132.299 197.99 131.398 198.169 129.596C198.348 127.793 198.348 125.63 198.348 123.107H206.748V132.66H208.178V136.806H205.854V134.643H198.705V136.806H196.203ZM199.778 132.66H204.067V125.09H200.671C200.671 126.532 200.493 128.154 200.493 129.596C200.314 130.857 200.135 131.759 199.778 132.66Z" fill="#1D1916"/>
<path d="M210.499 133.201C209.427 132.119 208.891 130.677 208.891 128.875V128.695C208.891 126.892 209.427 125.45 210.678 124.369C211.75 123.287 213.18 122.746 214.967 122.746C216.755 122.746 218.184 123.287 219.257 124.369C220.329 125.45 220.865 126.892 220.865 128.695V128.875C220.865 130.677 220.329 132.119 219.257 133.201C218.184 134.282 216.755 134.823 214.967 134.823C213.18 134.823 211.572 134.282 210.499 133.201ZM217.112 131.759C217.648 131.038 218.006 130.136 218.006 128.875V128.695C218.006 127.613 217.648 126.532 217.112 125.991C216.576 125.27 215.682 124.909 214.789 124.909C213.895 124.909 213.001 125.27 212.465 125.991C211.929 126.712 211.572 127.613 211.572 128.875V129.055C211.572 130.317 211.929 131.218 212.465 131.939C213.001 132.66 213.895 133.02 214.789 133.02C215.861 132.66 216.576 132.299 217.112 131.759Z" fill="#1D1916"/>
<path d="M225.333 122.927V127.974L229.444 122.927H232.304L227.657 128.514L232.482 134.643H229.265L225.333 129.416V134.643H222.652V122.927H225.333Z" fill="#1D1916"/>
<path d="M234.094 134.643V132.48C234.273 132.48 234.451 132.66 234.988 132.66C235.702 132.66 236.239 132.299 236.596 131.398L232.664 122.927H235.345L237.847 128.514L240.171 122.927H242.673L238.919 131.759C238.026 133.561 237.311 134.823 235.166 134.823C234.63 134.823 234.273 134.643 234.094 134.643Z" fill="#1D1916"/>
<path d="M246.782 122.927V127.974L250.893 122.927H253.753L249.106 128.514L253.931 134.643H250.714L246.782 129.416V134.643H244.102V122.927H246.782Z" fill="#1D1916"/>
<path d="M255.004 122.927H257.685V131.038L262.51 122.927H265.191V134.643H262.51V126.351L257.685 134.643H255.004V122.927Z" fill="#1D1916"/>
<path d="M270.376 122.927V127.613H275.023V122.927H277.704V134.643H275.023V129.776H270.376V134.643H267.695V122.927H270.376Z" fill="#1D1916"/>
<path d="M286.459 122.927L290.212 134.643H287.531L286.816 132.119H282.705L281.99 134.643H279.488L283.241 122.927H286.459ZM286.101 130.137L284.493 125.09L282.884 130.137H286.101Z" fill="#1D1916"/>
<path d="M21.2322 104.181C31.5983 104.181 39.1048 98.7739 39.8197 88.3198H27.4876C27.1301 92.2851 24.628 94.0876 21.0535 94.0876C16.2279 94.0876 13.547 90.4827 13.547 83.9939V83.6334C13.547 76.9644 16.2279 73.5397 20.696 73.5397C24.2705 73.5397 26.0578 75.5224 26.4152 79.1273H39.1048C38.2111 68.4929 31.0621 63.6263 20.5173 63.6263C9.07883 63.6263 0.5 71.557 0.5 83.6334V83.9939C0.5 96.0703 7.11285 104.181 21.2322 104.181ZM41.4282 64.167V103.46H53.7603V89.942H55.7262L63.054 103.46H76.101L67.1647 87.4185C71.0967 85.6161 73.7775 82.5519 73.7775 77.1446V76.9644C73.7775 68.4929 68.237 64.167 57.5135 64.167H41.4282ZM56.6199 82.0112H53.7603V73.5397H56.6199C60.0157 73.5397 61.6242 74.6212 61.6242 77.5051V77.6853C61.8029 80.5693 60.0157 82.0112 56.6199 82.0112ZM95.7608 94.4481C90.7565 94.4481 87.7181 90.8432 87.7181 83.9939V83.6334C87.7181 76.7841 90.7565 73.3595 95.5821 73.3595C100.586 73.3595 103.625 76.9644 103.625 83.6334V83.9939C103.803 90.6629 100.765 94.4481 95.7608 94.4481ZM95.5821 104.181C108.45 104.181 116.672 96.0703 116.672 83.6334V83.2729C116.672 70.8361 107.735 63.446 95.7608 63.446C84.1436 63.446 74.8499 71.3768 74.8499 83.4532V83.8137C74.8499 96.0703 82.7138 104.181 95.5821 104.181ZM133.114 104.181C143.481 104.181 149.2 98.053 149.2 90.8432C149.2 82.0112 143.659 79.4878 133.829 78.5866C129.54 78.0458 128.289 77.1446 128.289 75.3422C128.289 73.72 129.54 72.4583 132.221 72.4583C134.902 72.4583 136.153 73.9002 136.51 76.2434H147.949C147.234 67.5917 142.051 63.6263 132.221 63.6263C122.391 63.6263 116.672 68.8534 116.672 76.2434C116.672 84.3544 120.425 87.5988 131.685 88.8605C135.974 89.4012 137.225 90.1222 137.225 92.2851C137.225 94.2678 135.795 95.5295 132.936 95.5295C128.825 95.5295 127.574 93.5468 127.395 91.0234H115.599C116.314 99.6752 122.033 104.181 133.114 104.181ZM165.821 104.181C176.187 104.181 181.907 98.053 181.907 90.8432C181.907 82.0112 176.366 79.4878 166.715 78.5866C162.425 78.0458 161.174 77.1446 161.174 75.3422C161.174 73.72 162.425 72.4583 165.106 72.4583C167.787 72.4583 169.038 73.9002 169.396 76.2434H180.834C180.119 67.5917 174.936 63.6263 165.106 63.6263C155.276 63.6263 149.557 68.8534 149.557 76.2434C149.557 84.3544 153.31 87.5988 164.57 88.8605C168.86 89.4012 170.111 90.1222 170.111 92.2851C170.111 94.2678 168.681 95.5295 165.821 95.5295C161.711 95.5295 160.46 93.5468 160.281 91.0234H148.485C148.842 99.6752 154.74 104.181 165.821 104.181ZM237.312 64.167L224.979 103.46H236.418L238.205 96.9715H250.537L252.325 103.46H265.371L253.218 64.167H237.312V64.167ZM240.707 88.5L244.639 74.2607L248.393 88.5H240.707ZM266.801 64.167V103.46H279.133V89.942H281.099L288.427 103.46H301.474L292.538 87.4185C296.47 85.6161 299.151 82.5519 299.151 77.1446V76.9644C299.151 68.4929 293.61 64.167 282.887 64.167H266.801ZM282.172 82.0112H279.312V73.5397H282.172C285.568 73.5397 287.176 74.6212 287.176 77.5051V77.6853C287.176 80.5693 285.389 82.0112 282.172 82.0112ZM309.159 73.72V103.46H321.67V73.72H331.5V64.167H299.329V73.72H309.159Z" fill="#1D1916"/>
<path d="M201.565 83.4531L194.237 75.8829L198.527 71.557L205.854 79.1273L213.361 71.557L217.65 75.8829L210.144 83.4531L217.472 91.0234L213.182 95.3493L205.854 87.779L198.348 95.3493L194.059 91.0234L201.565 83.4531Z" fill="#1D1916" stroke="#1D1916" stroke-width="1.5787"/>
</g>
<defs>
<clipPath id="clip0">
<rect width="331" height="177" fill="white" transform="translate(0.5)"/>
</clipPath>
</defs>
</svg>
